<svg xmlns="http://www.w3.org/2000/svg">
	<symbol id="locked">
		<path d="M39 48H9a3 3 0 01-3-3V24c0-1.656 1.344-3 3-3v-6C9 6.714 15.717 0 24 0c8.286 0 15 6.714 15 15v6a3 3 0 013 3v21c0 1.659-1.341 3-3 3zm-6-33c0-4.971-4.032-9-9-9a9 9 0 00-9 9v6h18v-6zm3 12H12v15h24V27z" />
	</symbol>
	<symbol id="unlocked">
		<path d="M39 21H15v-6a9 9 0 019-9c3.915 0 7.206 2.514 8.448 6h6.249C37.308 5.154 31.257 0 24 0 15.717 0 9 6.714 9 15v6c-1.656 0-3 1.344-3 3v21a3 3 0 003 3h30c1.659 0 3-1.341 3-3V24a3 3 0 00-3-3zm-3 6v15H12V27h24z" />
	</symbol>
	<symbol id="sort" viewBox="0 0 320 512">
		<path d="M41 288h238c21.4 0 32.1 25.9 17 41L177 448c-9.4 9.4-24.6 9.4-33.9 0L24 329c-15.1-15.1-4.4-41 17-41zm255-105L177 64c-9.4-9.4-24.6-9.4-33.9 0L24 183c-15.1 15.1-4.4 41 17 41h238c21.4 0 32.1-25.9 17-41z" />
	</symbol>
	<symbol id="sortAsc" viewBox="0 0 320 512">
		<path d="M41 288h238c21.4 0 32.1 25.9 17 41L177 448c-9.4 9.4-24.6 9.4-33.9 0L24 329c-15.1-15.1-4.4-41 17-41z" />
	</symbol>
	<symbol id="sortDesc" viewBox="0 0 320 512">
		<path d="M279 224H41c-21.4 0-32.1-25.9-17-41L143 64c9.4-9.4 24.6-9.4 33.9 0l119 119c15.2 15.1 4.5 41-16.9 41z" />
	</symbol>
	<symbol id="warning" viewBox="0 0 512 512">
		<path d="M504.051 458.318L264.66 43.682c-1.924-3.333-5.292-5-8.66-5s-6.736 1.667-8.66 5L7.949 458.318c-3.849 6.667.962 15 8.66 15H495.39c7.699 0 12.51-8.333 8.661-15zm-483.978 3L256 52.682l235.927 408.637H20.073z"/><path d="M246 179.24c-29.57 16.96-8.35 111.48 8 168.43.42 1.45 1.21 2.18 2 2.18s1.58-.73 2-2.17c12.99-44.7 40.8-150.5 8-168.44-3.28-1.79-6.69-2.74-10.12-2.74-3.31 0-6.64.88-9.88 2.74zm23.25 72.89c-2.42 18.53-6.84 40.26-13.18 64.84-5.5-21.84-10.82-46.81-13.35-69.62-5.16-46.41 4.06-57.02 8.25-59.43 1.67-.96 3.27-1.42 4.91-1.42 1.69 0 3.48.51 5.32 1.52 4.61 2.52 14.62 13.81 8.05 64.11zM256 375.5c-13.25 0-24 10.75-24 24s10.75 24 24 24 24-10.75 24-24-10.75-24-24-24zm0 38c-7.72 0-14-6.28-14-14s6.28-14 14-14 14 6.28 14 14-6.28 14-14 14z"/>
	</symbol>
</svg>