<svg xmlns='http://www.w3.org/2000/svg'>
	<symbol id='sort' viewBox='0 0 320 512'>
		<path d='M41 288h238c21.4 0 32.1 25.9 17 41L177 448c-9.4 9.4-24.6 9.4-33.9 0L24 329c-15.1-15.1-4.4-41 17-41zm255-105L177 64c-9.4-9.4-24.6-9.4-33.9 0L24 183c-15.1 15.1-4.4 41 17 41h238c21.4 0 32.1-25.9 17-41z' />
	</symbol>
	<symbol id='sort-asc' viewBox='0 0 320 512'>
		<path d='M41 288h238c21.4 0 32.1 25.9 17 41L177 448c-9.4 9.4-24.6 9.4-33.9 0L24 329c-15.1-15.1-4.4-41 17-41z' />
	</symbol>
	<symbol id='sort-desc' viewBox='0 0 320 512'>
		<path d='M279 224H41c-21.4 0-32.1-25.9-17-41L143 64c9.4-9.4 24.6-9.4 33.9 0l119 119c15.2 15.1 4.5 41-16.9 41z' />
	</symbol>
	<symbol id='warning' viewBox='0 0 512 512'>
		<path d='M504.051 458.318L264.66 43.682c-1.924-3.333-5.292-5-8.66-5s-6.736 1.667-8.66 5L7.949 458.318c-3.849 6.667.962 15 8.66 15H495.39c7.699 0 12.51-8.333 8.661-15zm-483.978 3L256 52.682l235.927 408.637H20.073z'/>
		<path d='M246 179.24c-29.57 16.96-8.35 111.48 8 168.43.42 1.45 1.21 2.18 2 2.18s1.58-.73 2-2.17c12.99-44.7 40.8-150.5 8-168.44-3.28-1.79-6.69-2.74-10.12-2.74-3.31 0-6.64.88-9.88 2.74zm23.25 72.89c-2.42 18.53-6.84 40.26-13.18 64.84-5.5-21.84-10.82-46.81-13.35-69.62-5.16-46.41 4.06-57.02 8.25-59.43 1.67-.96 3.27-1.42 4.91-1.42 1.69 0 3.48.51 5.32 1.52 4.61 2.52 14.62 13.81 8.05 64.11zM256 375.5c-13.25 0-24 10.75-24 24s10.75 24 24 24 24-10.75 24-24-10.75-24-24-24zm0 38c-7.72 0-14-6.28-14-14s6.28-14 14-14 14 6.28 14 14-6.28 14-14 14z'/>
	</symbol>
	<symbol id='unlocked' viewBox='0 0 512 512'>
		<path d="M454.101 201.069h-21.489l-.001-.069h-46.749l.001.069H126.137C126.708 122.34 184.739 58.483 256 58.483c47.878 0 89.76 28.842 112.278 71.638l42.525-19.618C380.759 51.631 322.709 11.734 256 11.734c-97.185 0-176.028 84.662-176.612 189.336H57.899c-18.641 0-33.893 15.252-33.893 33.893v231.41c0 18.641 15.252 33.893 33.893 33.893h396.202c18.641 0 33.893-15.252 33.893-33.893v-231.41c.001-18.642-15.251-33.894-33.893-33.894z"/>
	</symbol>
	<symbol id='locked' viewBox="0 0 512 512">
		<path d="M454.101 201.069h-21.489C432.028 96.396 353.185 11.734 256 11.734S79.972 96.396 79.388 201.069H57.899c-18.641 0-33.893 15.252-33.893 33.893v231.41c0 18.641 15.252 33.893 33.893 33.893h396.202c18.641 0 33.893-15.252 33.893-33.893v-231.41c.001-18.641-15.251-33.893-33.893-33.893zM256 58.483c71.261 0 129.292 63.856 129.863 142.586H126.137C126.708 122.34 184.739 58.483 256 58.483z"/>
	</symbol>
</svg>